{"title":"Memoria de mis putas tristes (2011) - 1080p x265 HEVC - SPA (ENG","uid":15800909,"size":848947212,"categoryP":"video","categoryS":"hd___movies","magnet":"?xt=urn:btih:0f6b7b59400efbdee9210a78d12e248a2b0e3e33&amp;dn=Memoria+de+mis+putas+tristes+%282011%29+-+1080p+x265+HEVC+-+SPA+%28ENG&amp;tr=udp%3A%2F%2Ftracker.leechers-paradise.org%3A6969&amp;tr=udp%3A%2F%2Fzer0day.ch%3A1337&amp;tr=udp%3A%2F%2Fopen.demonii.com%3A1337&amp;tr=udp%3A%2F%2Ftracker.coppersurfer.tk%3A6969&amp;tr=udp%3A%2F%2Fexodus.desync.com%3A6969","seeders":2,"leechers":0,"uploader":"BRSHNKV","files":2,"time":1473502129,"description":"Plot\r\nChronicles the romantic enchantment of a 90 year old reporter with a girl 70 years younger than himself. \r\n\r\n\r\n\r\nTechnical:\r\n\r\n\r\nFormat                                   : MPEG-4\r\nFormat profile                           : Base Media / Version 2\r\nCodec ID                                 : mp42\r\nFile size                                : 810 MiB\r\nDuration                                 : 1h 36mn\r\nOverall bit rate mode                    : Variable\r\nOverall bit rate                         : 1 167 Kbps\r\nMovie name                               : Memoria de mis putas tristes (2011) - 1080p x265 HEVC - SPA (ENG SUBS) [BRSHNKV]\r\nEncoded date                             : UTC 2016-09-09 15:12:23\r\nTagged date                              : UTC 2016-09-09 15:12:23\r\nWriting application                      : HandBrake 20160211184813-ffd8cb1-master 2016021301\r\n\r\nVideo\r\nID                                       : 1\r\nFormat                                   : HEVC\r\nFormat/Info                              : High Efficiency Video Coding\r\nFormat profile                           : Main   @Main\r\nCodec ID                                 : hev1\r\nCodec ID/Info                            : High Efficiency Video Coding\r\nDuration                                 : 1h 36mn\r\nBit rate                                 : 1 001 Kbps\r\nWidth                                    : 1 920 pixels\r\nHeight                                   : 1 080 pixels\r\nDisplay aspect ratio                     : 16:9\r\nFrame rate mode                          : Constant\r\nFrame rate                               : 24.000 fps\r\nColor space                              : YUV\r\nChroma subsampling                       : 4:2:0\r\nBit depth                                : 10 bits\r\nBits/(Pixel*Frame)                       : 0.020\r\nStream size                              : 694 MiB (86%)\r\nWriting library                          : x265 1.9:[Mac OS X][clang 7.0.2][64 bit] 10bit\r\nEncoded date                             : UTC 2016-09-09 15:12:23\r\nTagged date                              : UTC 2016-09-09 15:12:23\r\nColor range                              : Limited\r\nColor primaries                          : BT.709\r\nTransfer characteristics                 : BT.709\r\nMatrix coefficients                      : BT.709\r\n\r\nAudio\r\nID                                       : 2\r\nFormat                                   : AAC\r\nFormat/Info                              : Advanced Audio Codec\r\nFormat profile                           : LC\r\nCodec ID                                 : 40\r\nDuration                                 : 1h 36mn\r\nBit rate mode                            : Variable\r\nBit rate                                 : 161 Kbps\r\nChannel(s)                               : 2 channels\r\nChannel positions                        : Front: L R\r\nSampling rate                            : 48.0 KHz\r\nCompression mode                         : Lossy\r\nStream size                              : 111 MiB (14%)\r\nTitle                                    : Stereo / Stereo\r\nLanguage                                 : Spanish\r\nEncoded date                             : UTC 2016-09-09 15:12:23\r\nTagged date                              : UTC 2016-09-09 15:12:23","torrent":{"xt":"urn:btih:0f6b7b59400efbdee9210a78d12e248a2b0e3e33","amp;dn":"Memoria+de+mis+putas+tristes+%282011%29+-+1080p+x265+HEVC+-+SPA+%28ENG","amp;tr":["udp%3A%2F%2Ftracker.leechers-paradise.org%3A6969","udp%3A%2F%2Fzer0day.ch%3A1337","udp%3A%2F%2Fopen.demonii.com%3A1337","udp%3A%2F%2Ftracker.coppersurfer.tk%3A6969","udp%3A%2F%2Fexodus.desync.com%3A6969"],"infoHash":"0f6b7b59400efbdee9210a78d12e248a2b0e3e33","infoHashBuffer":{"type":"Buffer","data":[15,107,123,89,64,14,251,222,233,33,10,120,209,46,36,138,43,14,62,51]},"announce":[],"urlList":[]}}